<?xml version="1.0" encoding="utf-8"?>
<!-- Generator: Adobe Illustrator 24.0.1, SVG Export Plug-In . SVG Version: 6.00 Build 0)  -->
<svg version="1.1" id="Layer_3" xmlns="http://www.w3.org/2000/svg" xmlns:xlink="http://www.w3.org/1999/xlink" x="0px" y="0px"
	 viewBox="0 0 457.3 234.79" style="enable-background:new 0 0 457.3 234.79;" xml:space="preserve">
<g>
	<path d="M447.36,207.02l0.04,0.01c-1.8-0.64-15.45-5.46-32.95-11.5c-55.53-19.17-169.24-58.41-187.13-65.2V96.33
		c0-5.06-1.35-8.83-3.22-11.67c-2.92-4.43-7.1-6.61-9.44-7.85c-0.15-0.08-0.29-0.15-0.44-0.23c-7.93-4.38-13.31-12.83-13.31-22.5
		c0-4.53,1.18-8.79,3.25-12.5c0.02-0.03,0.03-0.06,0.04-0.09c0.05-0.08,0.1-0.16,0.14-0.24c0.07-0.13,0.15-0.26,0.22-0.39
		c1.99-3.31,0.08-7.24-6.29-5.15c-0.12,0.04-0.24,0.05-0.37,0.08c-0.74,0.18-1.49,0.31-2.27,0.37c-2.22,0.22-4.03-0.03-5.36-0.54
		c-6.07-1.79-10.51-7.41-10.51-14.05c0-8.08,6.57-14.65,14.65-14.65s14.65,6.57,14.65,14.65c0,1.66-0.29,3.26-0.81,4.75
		c-0.01,0.03-0.01,0.06-0.02,0.09c-1.38,3.08,1.16,7.43,6.84,4.69c0,0,0.01,0,0.01,0c3.46-1.74,7.36-2.72,11.49-2.72
		c3.9,0,7.59,0.88,10.9,2.43c0,0,0.01,0,0.01,0c5.76,3.02,8.41-1.65,7.35-4.72c0-0.01,0-0.02-0.01-0.03
		c-0.46-1.42-0.71-2.92-0.71-4.49c0-8.08,6.57-14.65,14.65-14.65s14.65,6.57,14.65,14.65s-6.57,14.65-14.65,14.65
		c-1.06,0-2.1-0.12-3.1-0.34c-0.01,0-0.01,0-0.02,0c-7.95-1.84-7.78,3.4-5.73,7.46c0.72,1.43,1.87,3.75,2.24,7.64h4.95
		c-0.37-3.67-1.38-7.15-2.93-10.32c1.48,0.36,3.01,0.56,4.59,0.56c10.84,0,19.65-8.82,19.65-19.65s-8.82-19.65-19.65-19.65
		c-10.84,0-19.65,8.82-19.65,19.65c0,1.65,0.23,3.24,0.61,4.77c-3.99-1.9-8.45-2.97-13.15-2.97c-4.69,0-9.14,1.06-13.12,2.95
		c0.38-1.53,0.61-3.12,0.61-4.76c0-10.84-8.82-19.65-19.65-19.65s-19.65,8.82-19.65,19.65s8.82,19.65,19.65,19.65
		c1.57,0,3.09-0.21,4.56-0.56c-1.98,4.05-3.09,8.6-3.09,13.41c0,12.45,7.46,23.19,18.13,28c3.68,2.05,8.27,5.46,8.27,14.26v34.14
		c-24.58,9.43-204.96,73.97-212.76,76.75l0.01,0.03c-4.31,1.74-7.43,6.56-7.43,12.23c0,7.14,4.92,12.95,10.97,12.95c0,0,0,0,0,0
		h123.2l2.07-5H13.11c-3.29,0-5.97-3.56-5.97-7.95c0-3.88,1.91-6.75,4.86-7.8c7.9-2.81,191.82-68.64,212.98-76.87
		c16.28,6.26,131.73,46.1,187.84,65.47c10.31,3.56,19.19,6.66,25.11,8.74c4.1,1.44,6.77,2.39,7.53,2.65c0.01,0,0.01,0.01,0.02,0.01
		l0,0c2.95,1.06,4.86,3.93,4.86,7.8c0,4.38-2.68,7.95-5.97,7.95h-8.64H152.17l-2.07,5h294.27c0,0,0,0,0,0
		c6.05,0,10.97-5.81,10.97-12.95C455.34,213.55,451.96,208.57,447.36,207.02z"/>
	<path d="M70.37,203.58h-6.96v21.46h6.85c3.02,0,5.92-0.67,8.38-3.1c1.6-1.57,2.7-4.67,2.7-7.57c0-2.09-0.67-4.7-2.2-6.85
		C77.51,205.29,74.84,203.58,70.37,203.58z M70.29,222.17h-3.74v-15.72h3.8c5.86,0,7.86,4.67,7.86,7.92
		C78.21,220.28,74.06,222.17,70.29,222.17z"/>
	<rect x="84.7" y="203.58" width="3.02" height="3.54"/>
	<rect x="84.7" y="208.97" width="3.02" height="16.07"/>
	<path d="M96.47,215.09c-1.33-0.41-2.49-0.75-2.49-2.09c0-1.01,0.78-1.71,1.89-1.71c1.1,0,1.89,0.64,2.06,1.94h3.02
		c-0.09-3.57-3.1-4.7-4.93-4.7c-3.05,0-5.05,2.26-5.05,4.64c0,3.42,2.78,4.21,4.53,4.84c1.57,0.55,2.81,1.04,2.81,2.47
		c0,1.36-0.96,2.2-2.32,2.2c-1.68,0-2.61-1.13-2.73-2.93h-3.02c0,4.41,3.65,5.69,5.69,5.69c3.42,0,5.4-2.29,5.4-5.13
		C101.32,216.48,97.72,215.47,96.47,215.09z"/>
	<path d="M111.44,208.54c-0.64,0-3.07,0-4.7,2.15h-0.06v-1.71h-2.81v16.07h3.02v-8.76c0-3.22,1.71-4.99,4.23-4.99c4,0,4,3.77,4,5.02
		v8.73h3.02v-9.51c-0.03-1.8-0.38-3.07-1.02-4.12C115.96,209.61,113.93,208.54,111.44,208.54z"/>
	<path d="M129.42,208.54c-4.52,0-8.24,3.63-8.24,8.44c0,4.55,3.63,8.47,8.18,8.47c2.49,0,6.18-1.31,7.72-5.45h-3.02
		c-0.73,1.39-2.35,2.7-4.58,2.7c-2.03,0-4.52-1.28-5.28-4.38h13.31c0.03-0.2,0.09-1.02,0.09-1.54
		C137.57,212.07,133.77,208.54,129.42,208.54z M124.2,215.99c0.15-2.35,2.29-4.7,5.19-4.7c2.9,0,5.05,2.35,5.19,4.7H124.2z"/>
	<polygon points="151.2,208.97 146.35,221.44 141.63,208.97 138.38,208.97 144.79,224.72 143.68,227.41 141.61,232.41 
		144.74,232.41 146.81,227.41 154.45,208.97 	"/>
	<path d="M170.45,218.8c0-3.34-2.29-4.7-3.19-5.22c0.73-0.64,1.91-1.68,1.91-4.06c0-1.51-0.64-5.95-6.7-5.95h-5.57v21.46h6.41
		C169.24,225.04,170.45,221.01,170.45,218.8z M160.04,206.45h2.38c0.7,0,3.63,0,3.63,3.05c0,1.25-0.52,3.02-3.45,3.02h-2.55V206.45z
		 M160.04,215.38h3.02c1.1,0,2.55,0.03,3.51,1.31c0.44,0.58,0.75,1.33,0.75,2.12c0,1.1-0.73,3.36-3.89,3.36h-3.39V215.38z"/>
	<path d="M181.33,225.45c5.45,0,8.67-4.58,8.67-8.5c0-4.58-3.8-8.41-8.67-8.41c-4.99,0-8.67,3.97-8.67,8.35
		C172.66,220.95,175.93,225.45,181.33,225.45z M181.33,211.29c3.39,0,5.66,2.81,5.66,5.66c0,3.05-2.41,5.74-5.66,5.74
		c-3.36,0-5.66-2.81-5.66-5.71C175.67,214.1,177.93,211.29,181.33,211.29z"/>
	<path d="M195.16,223.85c1.16,1.02,2.76,1.6,4.58,1.6c2.03,0,3.92-0.75,4.73-2.15h0.06v1.74h2.76v-16.07h-3.02v8.62
		c0,3.51-1.71,5.11-4.21,5.11c-2.23,0-4-1.04-4-5.02v-8.7h-3.02v8.7C193.04,220.89,193.83,222.69,195.16,223.85z"/>
	<path d="M214.15,216.28c0-3.22,1.71-4.99,4.23-4.99c4,0,4,3.77,4,5.02v8.73h3.02v-9.51c-0.03-1.8-0.38-3.07-1.02-4.12
		c-1.16-1.8-3.19-2.87-5.69-2.87c-0.64,0-3.07,0-4.7,2.15h-0.06v-1.71h-2.81v16.07h3.02V216.28z"/>
	<path d="M236.78,225.45c2.35,0,4.41-0.93,5.69-2.7h0.06v2.29h2.78v-21.46h-3.02v7.37h-0.06c-1.16-1.48-3.22-2.41-5.45-2.41
		c-5.68,0-8.35,4.61-8.35,8.53C228.42,221.3,231.44,225.45,236.78,225.45z M236.95,211.29c3.1,0,5.57,2.32,5.57,5.74
		c0,3.07-2.44,5.66-5.6,5.66c-3.19,0-5.48-2.76-5.48-5.66C231.44,214.51,233.24,211.29,236.95,211.29z"/>
	<path d="M256.55,225.45c2.49,0,6.18-1.31,7.72-5.45h-3.02c-0.73,1.39-2.35,2.7-4.58,2.7c-2.03,0-4.53-1.28-5.28-4.38h13.31
		c0.03-0.2,0.09-1.02,0.09-1.54c-0.03-4.7-3.83-8.24-8.18-8.24c-4.52,0-8.24,3.63-8.24,8.44C248.37,221.53,252,225.45,256.55,225.45
		z M256.58,211.29c2.9,0,5.05,2.35,5.19,4.7h-10.38C251.53,213.64,253.68,211.29,256.58,211.29z"/>
	<path d="M270.82,216.25c0-2.29,0.81-3.51,1.77-4.03c0.73-0.38,1.71-0.58,2.18-0.58v-3.1c-0.75,0.03-2.81,0.09-4.09,1.89h-0.06
		v-1.45h-2.81v16.07h3.02V216.25z"/>
	<path d="M282.04,222.69c-1.68,0-2.61-1.13-2.73-2.93h-3.02c0,4.41,3.66,5.69,5.69,5.69c3.42,0,5.4-2.29,5.4-5.13
		c0-3.83-3.6-4.84-4.84-5.22c-1.33-0.41-2.49-0.75-2.49-2.09c0-1.01,0.78-1.71,1.89-1.71c1.1,0,1.88,0.64,2.06,1.94H287
		c-0.09-3.57-3.1-4.7-4.93-4.7c-3.05,0-5.05,2.26-5.05,4.64c0,3.42,2.78,4.21,4.53,4.84c1.57,0.55,2.81,1.04,2.81,2.47
		C284.36,221.85,283.41,222.69,282.04,222.69z"/>
	<path d="M321.2,221.94c1.6-1.57,2.7-4.67,2.7-7.57c0-2.09-0.67-4.7-2.2-6.85c-1.62-2.23-4.29-3.94-8.76-3.94h-6.96v21.46h6.85
		C315.83,225.04,318.73,224.37,321.2,221.94z M309.1,206.45h3.8c5.86,0,7.86,4.67,7.86,7.92c0,5.92-4.15,7.8-7.92,7.8h-3.74V206.45z
		"/>
	<rect x="327.25" y="208.97" width="3.02" height="16.07"/>
	<rect x="327.25" y="203.58" width="3.02" height="3.54"/>
	<path d="M338.53,222.69c-1.68,0-2.61-1.13-2.73-2.93h-3.02c0,4.41,3.66,5.69,5.69,5.69c3.42,0,5.4-2.29,5.4-5.13
		c0-3.83-3.6-4.84-4.84-5.22c-1.33-0.41-2.49-0.75-2.49-2.09c0-1.01,0.78-1.71,1.89-1.71c1.1,0,1.88,0.64,2.06,1.94h3.02
		c-0.09-3.57-3.1-4.7-4.93-4.7c-3.05,0-5.05,2.26-5.05,4.64c0,3.42,2.78,4.21,4.53,4.84c1.57,0.55,2.81,1.04,2.81,2.47
		C340.86,221.85,339.9,222.69,338.53,222.69z"/>
	<polygon points="347.23,225.04 350.25,225.04 350.25,211.73 352.89,211.73 352.89,208.97 350.25,208.97 350.25,203.58 
		347.23,203.58 347.23,208.97 345.06,208.97 345.06,211.73 347.23,211.73 	"/>
	<path d="M357.93,216.25c0-2.29,0.81-3.51,1.77-4.03c0.73-0.38,1.71-0.58,2.18-0.58v-3.1c-0.75,0.03-2.81,0.09-4.09,1.89h-0.06
		v-1.45h-2.81v16.07h3.02V216.25z"/>
	<rect x="364.78" y="203.58" width="3.02" height="3.54"/>
	<rect x="364.78" y="208.97" width="3.02" height="16.07"/>
	<path d="M379.07,225.45c3.57,0,6.7-2.15,7.92-5.71h-3.36c-0.75,1.65-2.29,2.96-4.55,2.96c-3.45,0-5.22-2.93-5.22-5.71
		c0-2.44,1.39-5.69,5.28-5.69c2.87,0,4.03,2,4.52,3.02h3.34c-0.61-2.38-3.34-5.77-7.89-5.77c-5.08,0-8.27,4.09-8.27,8.44
		C370.84,221.12,373.8,225.45,379.07,225.45z"/>
	<polygon points="390.21,225.04 393.23,225.04 393.23,211.73 395.87,211.73 395.87,208.97 393.23,208.97 393.23,203.58 
		390.21,203.58 390.21,208.97 388.03,208.97 388.03,211.73 390.21,211.73 	"/>
</g>
</svg>
